Patient4_TMGait_0pt4_02_left_08_EMG.mot
version=1
nRows=13
nColumns=33
inDegrees=no
endheader
time	1LAddLong	2LGlutMax	3LGlutMed	4LIliopsoas	5LSemiMemb	6LBicFemLong	7LRecFem	8LVastMed	9LVastLat	10LGasMed	11LTibAnt	12lTibPost	13LPeroneusLong	14LSol	15LExtDigLong	16LFlexDigLong	17RAddLong	18RGlutMax	19RGlutMed	20RIliopsoas	21RSemiMemb	22RBicFemLong	23RRecFem	24RVastMed	25RVastLat	26RGasMed	27RTibAnt	28RTibPost	29RPeroneusLong	30RSol	31RExtDigLong	32RFlexDigLong
10.76	-0.007629	0.061646	0.005188	-0.000153	0.008698	-0.016785	0.6044	0.014648	0.10544	-0.12421	0.12466	0.016327	0.10407	-0.064392	0.53955	0.040131	0.024414	0.37003	0.9227	-0.028076	0.002594	-0.070038	0.2243	-0.159	-0.68588	0.016632	-0.001221	-0.010223	-0.07782	0.14297	-0.000305	0.006714
10.761	-0.001831	0.018311	0.018463	0.00351	-0.004272	-0.001831	0.57892	0.014038	0.12619	-0.065155	-0.11551	0.004425	0.12268	-0.11551	-0.15213	0.044708	0.018616	0.25497	0.54962	-0.025635	0.041656	-0.046234	0.17044	0.034485	-0.37415	0.025024	-0.029755	-0.02121	0.91065	0.3743	-0.015411	0.013733
10.762	-0.005188	0.022736	0.034332	0.003662	0.006256	-0.000763	0.52582	0.014343	0.14496	0.032349	-0.10361	0.007629	0.02121	-0.20371	-0.047302	0.038605	0.032196	0.28046	0.21362	-0.060883	0.085602	0.029907	0.14343	0.15289	-0.06485	0.016937	0.06012	-0.037231	-0.077057	0.42786	-0.005951	0.012817
10.763	0.005035	0.031281	0.013123	0.013733	0.00885	-0.01236	0.4657	0.012207	0.15228	0.06485	-0.047607	0.007629	-0.059509	-0.19989	0.050964	0.027618	0.023041	0.24124	0.016327	0.010376	0.061798	0.10819	0.10574	0.069733	-0.032043	0.001831	0.10422	-0.012512	0.17075	0.22903	-0.005341	0.013275
10.764	0.002441	-0.016632	-0.005035	0.004425	0.008698	0.001068	0.38238	0.012207	0.159	0.038757	-0.103	-0.001984	-0.019531	-0.10284	0.004883	0.014343	-0.011597	0.2713	0.21774	0.009308	-0.11749	0.17548	-0.12314	0.069122	0.010071	-0.002136	0.005646	-0.017853	0.91339	0.21545	0.009003	0.008392
10.765	0.001373	0.000153	0.005035	0.015564	0.007782	-0.014954	0.33264	0.012512	0.17899	-0.027313	-0.16403	0.005646	0.072021	0.002594	0.43442	0.035553	0.002289	0.21561	0.09964	-0.01709	-0.21774	0.11139	-0.1619	0.00824	0.007629	0.005646	-0.079346	-0.016632	-0.74814	0.21301	-0.011139	0.018616
10.766	0.003052	-0.018463	0.003815	0.016479	0.009155	-0.02655	0.25925	0.011597	0.18204	-0.059052	-0.11047	-0.005646	0.13473	-0.000916	0.12589	0.026855	-0.004883	0.16419	0.21561	-0.11581	-0.11246	0.010681	-0.007477	0.065308	-0.000916	0.00061	-0.09491	-0.012665	-1.5067	0.14511	-0.00473	0.014191
10.767	-0.00824	0.000458	0.005798	0.002747	0.018921	-0.030823	0.21011	-0.000763	0.19745	-0.034485	-0.027008	-0.001984	0.090942	-0.028839	-0.13245	0.019684	0.003052	0.19791	0.20691	-0.18097	0.052185	-0.059662	0.081329	0.062561	-0.006409	0.006104	-0.066681	-0.0177	-0.26901	-0.044556	-0.004578	0.008392
10.768	0.004272	0.018311	0.040283	-0.002441	0.0177	-0.029755	0.15488	0.006866	0.19363	-0.0354	-0.000916	-0.00351	0.036774	-0.005646	-0.23071	-0.000305	0.022736	0.25559	0.62561	-0.15305	0.04425	-0.044708	0.02594	0.058899	-0.002136	0.016022	-0.026855	-0.02182	-0.17349	-0.093842	-0.002594	0.010834
10.769	0.001068	-0.043488	-0.011902	0.01358	-0.006409	-0.048981	0.13519	0.014038	0.18738	-0.05188	0.032501	-0.005035	-0.013733	-0.03418	-0.032959	-0.022736	0.019684	0.24246	0.65353	0.005188	-0.10529	-0.10422	0.006561	0.046844	0.037994	0.022278	0.029297	-0.025635	-0.33707	-0.045319	-0.007172	0.014343
10.77	0.001984	-0.029755	0.023499	0.005646	-0.003815	-0.0354	0.10208	0.007782	0.19531	-0.05722	0.12207	-0.008698	-0.019989	-0.010376	0.10452	-0.01236	0.023193	0.13947	0.39261	0.17654	-0.10101	-0.071411	0.046692	0.05127	0.02182	0.018463	-0.010071	-0.023346	-0.42114	0.064392	-0.003204	0.00946
10.771	0.011444	0.001221	0.014648	-0.019073	-0.019684	-0.035706	0.077972	0.006104	0.1976	-0.067596	0.20966	-0.006714	-0.009918	0.037994	0.12207	-0.014648	0.004425	0.015259	0.084076	0.30838	-0.15442	-0.00885	0.032349	0.075684	0.027161	0.015411	0.024719	-0.024567	-0.20432	0.040436	-0.00412	-0.000916
10.772	0.01236	-0.015411	0.02243	0.000916	0.002594	-0.031586	0.036011	0.005646	0.2121	-0.074005	0.21591	-0.006256	-0.045776	-0.056915	0.19318	0.00885	-0.016785	0.011444	-0.29633	0.24674	0.057373	0.022736	0.042419	0.080566	0.031586	0.011292	0.04303	-0.020752	0.24582	0.097656	-0.002594	0.00824
